<?xml version="1.0"?>
<svg width="2000" height="2000" xmlns="http://www.w3.org/2000/svg" xmlns:svg="http://www.w3.org/2000/svg" xmlns:xlink="http://www.w3.org/1999/xlink" preserveAspectRatio="none" version="1.1">
 <defs>
  <mask id="SvgjsMask1694">
   <rect fill="#ffffff" height="2000" id="svg_1" width="2000"/>
  </mask>
  <linearGradient gradientUnits="userSpaceOnUse" id="SvgjsLinearGradient1695" x1="0%" x2="100%" y1="0%" y2="100%">
   <stop offset="0" stop-color="rgba(0, 0, 0, 1)"/>
   <stop offset="1" stop-color="rgba(0, 0, 0, 1)"/>
  </linearGradient>
  <path d="m-1,0a1,1 0 1 0 2,0a1,1 0 1 0 -2,0z" id="SvgjsPath1697"/>
  <path d="m-3,0a3,3 0 1 0 6,0a3,3 0 1 0 -6,0z" id="SvgjsPath1701"/>
  <path d="m-5,0a5,5 0 1 0 10,0a5,5 0 1 0 -10,0z" id="SvgjsPath1696"/>
  <path d="m2,-2l-4,4l4,-4z" id="SvgjsPath1699"/>
  <path d="m6,-6l-12,12l12,-12z" id="SvgjsPath1698"/>
  <path d="m30,-30l-60,60l60,-60z" id="SvgjsPath1700"/>
 </defs>
 <symbol id="SvgjsSymbol1702">
  <use id="svg_2" stroke="rgba(112, 114, 135, 0)" x="30" xlink:href="#SvgjsPath1696" y="30"/>
  <use id="svg_3" stroke="rgba(112, 114, 135, 0)" x="30" xlink:href="#SvgjsPath1697" y="90"/>
  <use id="svg_4" stroke="rgba(255, 255, 255, 0)" x="30" xlink:href="#SvgjsPath1697" y="150"/>
  <use id="svg_5" stroke="rgba(141, 141, 141, 0.39)" x="30" xlink:href="#SvgjsPath1698" y="210"/>
  <use id="svg_6" stroke="rgba(112, 114, 135, 0)" x="30" xlink:href="#SvgjsPath1699" y="270"/>
  <use id="svg_7" stroke="rgba(255, 255, 255, 0)" x="30" xlink:href="#SvgjsPath1697" y="330"/>
  <use id="svg_8" stroke="rgba(112, 114, 135, 0)" x="30" xlink:href="#SvgjsPath1698" y="390"/>
  <use id="svg_9" stroke="rgba(141, 141, 141, 0.39)" x="30" xlink:href="#SvgjsPath1696" y="450"/>
  <use id="svg_10" stroke="rgba(255, 255, 255, 0)" x="30" xlink:href="#SvgjsPath1696" y="510"/>
  <use id="svg_11" stroke="rgba(112, 114, 135, 0)" stroke-width="3" x="30" xlink:href="#SvgjsPath1700" y="570"/>
  <use id="svg_12" stroke="rgba(112, 114, 135, 0)" x="30" xlink:href="#SvgjsPath1696" y="630"/>
  <use id="svg_13" stroke="rgba(112, 114, 135, 0)" x="30" xlink:href="#SvgjsPath1696" y="690"/>
  <use id="svg_14" stroke="rgba(112, 114, 135, 0)" x="90" xlink:href="#SvgjsPath1697" y="30"/>
  <use id="svg_15" stroke="rgba(112, 114, 135, 0)" x="90" xlink:href="#SvgjsPath1699" y="90"/>
  <use id="svg_16" stroke="rgba(112, 114, 135, 0)" stroke-width="3" x="90" xlink:href="#SvgjsPath1700" y="150"/>
  <use id="svg_17" stroke="rgba(112, 114, 135, 0)" x="90" xlink:href="#SvgjsPath1696" y="210"/>
  <use id="svg_18" stroke="rgba(112, 114, 135, 0)" x="90" xlink:href="#SvgjsPath1698" y="270"/>
  <use id="svg_19" stroke="rgba(255, 255, 255, 0)" x="90" xlink:href="#SvgjsPath1701" y="330"/>
  <use id="svg_20" stroke="rgba(141, 141, 141, 0.39)" x="90" xlink:href="#SvgjsPath1698" y="390"/>
  <use id="svg_21" stroke="rgba(141, 141, 141, 0.39)" x="90" xlink:href="#SvgjsPath1698" y="450"/>
  <use id="svg_22" stroke="rgba(112, 114, 135, 0)" x="90" xlink:href="#SvgjsPath1701" y="510"/>
  <use id="svg_23" stroke="rgba(112, 114, 135, 0)" x="90" xlink:href="#SvgjsPath1696" y="570"/>
  <use id="svg_24" stroke="rgba(112, 114, 135, 0)" x="90" xlink:href="#SvgjsPath1698" y="630"/>
  <use id="svg_25" stroke="rgba(112, 114, 135, 0)" x="90" xlink:href="#SvgjsPath1696" y="690"/>
  <use id="svg_26" stroke="rgba(112, 114, 135, 0)" x="150" xlink:href="#SvgjsPath1697" y="30"/>
  <use id="svg_27" stroke="rgba(255, 255, 255, 0)" x="150" xlink:href="#SvgjsPath1697" y="90"/>
  <use id="svg_28" stroke="rgba(141, 141, 141, 0.39)" x="150" xlink:href="#SvgjsPath1696" y="150"/>
  <use id="svg_29" stroke="rgba(112, 114, 135, 0)" x="150" xlink:href="#SvgjsPath1698" y="210"/>
  <use id="svg_30" stroke="rgba(112, 114, 135, 0)" x="150" xlink:href="#SvgjsPath1696" y="270"/>
  <use id="svg_31" stroke="rgba(141, 141, 141, 0.39)" x="150" xlink:href="#SvgjsPath1698" y="330"/>
  <use id="svg_32" stroke="rgba(141, 141, 141, 0.39)" x="150" xlink:href="#SvgjsPath1697" y="390"/>
  <use id="svg_33" stroke="rgba(112, 114, 135, 0)" x="150" xlink:href="#SvgjsPath1697" y="450"/>
  <use id="svg_34" stroke="rgba(141, 141, 141, 0.39)" x="150" xlink:href="#SvgjsPath1699" y="510"/>
  <use id="svg_35" stroke="rgba(112, 114, 135, 0)" x="150" xlink:href="#SvgjsPath1696" y="570"/>
  <use id="svg_36" stroke="rgba(112, 114, 135, 0)" x="150" xlink:href="#SvgjsPath1698" y="630"/>
  <use id="svg_37" stroke="rgba(112, 114, 135, 0)" x="150" xlink:href="#SvgjsPath1699" y="690"/>
  <use id="svg_38" stroke="rgba(112, 114, 135, 0)" x="210" xlink:href="#SvgjsPath1698" y="30"/>
  <use id="svg_39" stroke="rgba(141, 141, 141, 0.39)" x="210" xlink:href="#SvgjsPath1698" y="90"/>
  <use id="svg_40" stroke="rgba(112, 114, 135, 0)" x="210" xlink:href="#SvgjsPath1699" y="150"/>
  <use id="svg_41" stroke="rgba(255, 255, 255, 0)" x="210" xlink:href="#SvgjsPath1698" y="210"/>
  <use id="svg_42" stroke="rgba(141, 141, 141, 0.39)" x="210" xlink:href="#SvgjsPath1696" y="270"/>
  <use id="svg_43" stroke="rgba(112, 114, 135, 0)" x="210" xlink:href="#SvgjsPath1697" y="330"/>
  <use id="svg_44" stroke="rgba(112, 114, 135, 0)" x="210" xlink:href="#SvgjsPath1696" y="390"/>
  <use id="svg_45" stroke="rgba(112, 114, 135, 0)" x="210" xlink:href="#SvgjsPath1698" y="450"/>
  <use id="svg_46" stroke="rgba(112, 114, 135, 0)" x="210" xlink:href="#SvgjsPath1696" y="510"/>
  <use id="svg_47" stroke="rgba(112, 114, 135, 0)" x="210" xlink:href="#SvgjsPath1697" y="570"/>
  <use id="svg_48" stroke="rgba(112, 114, 135, 0)" x="210" xlink:href="#SvgjsPath1696" y="630"/>
  <use id="svg_49" stroke="rgba(255, 255, 255, 0)" x="210" xlink:href="#SvgjsPath1701" y="690"/>
  <use id="svg_50" stroke="rgba(141, 141, 141, 0.39)" x="270" xlink:href="#SvgjsPath1697" y="30"/>
  <use id="svg_51" stroke="rgba(112, 114, 135, 0)" x="270" xlink:href="#SvgjsPath1701" y="90"/>
  <use id="svg_52" stroke="rgba(112, 114, 135, 0)" x="270" xlink:href="#SvgjsPath1696" y="150"/>
  <use id="svg_53" stroke="rgba(255, 255, 255, 0)" x="270" xlink:href="#SvgjsPath1698" y="210"/>
  <use id="svg_54" stroke="rgba(112, 114, 135, 0)" x="270" xlink:href="#SvgjsPath1698" y="270"/>
  <use id="svg_55" stroke="rgba(112, 114, 135, 0)" x="270" xlink:href="#SvgjsPath1698" y="330"/>
  <use id="svg_56" stroke="rgba(255, 255, 255, 0)" x="270" xlink:href="#SvgjsPath1698" y="390"/>
  <use id="svg_57" stroke="rgba(141, 141, 141, 0.39)" x="270" xlink:href="#SvgjsPath1696" y="450"/>
  <use id="svg_58" stroke="rgba(255, 255, 255, 0)" x="270" xlink:href="#SvgjsPath1699" y="510"/>
  <use id="svg_59" stroke="rgba(255, 255, 255, 0)" x="270" xlink:href="#SvgjsPath1697" y="570"/>
  <use id="svg_60" stroke="rgba(141, 141, 141, 0.39)" x="270" xlink:href="#SvgjsPath1697" y="630"/>
  <use id="svg_61" stroke="rgba(255, 255, 255, 0)" x="270" xlink:href="#SvgjsPath1696" y="690"/>
  <use id="svg_62" stroke="rgba(112, 114, 135, 0)" x="330" xlink:href="#SvgjsPath1699" y="30"/>
  <use id="svg_63" stroke="rgba(112, 114, 135, 0)" x="330" xlink:href="#SvgjsPath1699" y="90"/>
  <use id="svg_64" stroke="rgba(112, 114, 135, 0)" x="330" xlink:href="#SvgjsPath1699" y="150"/>
  <use id="svg_65" stroke="rgba(112, 114, 135, 0)" x="330" xlink:href="#SvgjsPath1696" y="210"/>
  <use id="svg_66" stroke="rgba(112, 114, 135, 0)" x="330" xlink:href="#SvgjsPath1698" y="270"/>
  <use id="svg_67" stroke="rgba(112, 114, 135, 0)" x="330" xlink:href="#SvgjsPath1698" y="330"/>
  <use id="svg_68" stroke="rgba(255, 255, 255, 0)" x="330" xlink:href="#SvgjsPath1696" y="390"/>
  <use id="svg_69" stroke="rgba(112, 114, 135, 0)" x="330" xlink:href="#SvgjsPath1698" y="450"/>
  <use id="svg_70" stroke="rgba(141, 141, 141, 0.39)" x="330" xlink:href="#SvgjsPath1699" y="510"/>
  <use id="svg_71" stroke="rgba(141, 141, 141, 0.39)" x="330" xlink:href="#SvgjsPath1699" y="570"/>
  <use id="svg_72" stroke="rgba(112, 114, 135, 0)" x="330" xlink:href="#SvgjsPath1698" y="630"/>
  <use id="svg_73" stroke="rgba(141, 141, 141, 0.39)" x="330" xlink:href="#SvgjsPath1699" y="690"/>
  <use id="svg_74" stroke="rgba(112, 114, 135, 0)" x="390" xlink:href="#SvgjsPath1696" y="30"/>
  <use id="svg_75" stroke="rgba(112, 114, 135, 0)" x="390" xlink:href="#SvgjsPath1698" y="90"/>
  <use id="svg_76" stroke="rgba(112, 114, 135, 0)" x="390" xlink:href="#SvgjsPath1699" y="150"/>
  <use id="svg_77" stroke="rgba(112, 114, 135, 0)" x="390" xlink:href="#SvgjsPath1696" y="210"/>
  <use id="svg_78" stroke="rgba(112, 114, 135, 0)" x="390" xlink:href="#SvgjsPath1698" y="270"/>
  <use id="svg_79" stroke="rgba(112, 114, 135, 0)" x="390" xlink:href="#SvgjsPath1696" y="330"/>
  <use id="svg_80" stroke="rgba(112, 114, 135, 0)" x="390" xlink:href="#SvgjsPath1696" y="390"/>
  <use id="svg_81" stroke="rgba(112, 114, 135, 0)" x="390" xlink:href="#SvgjsPath1698" y="450"/>
  <use id="svg_82" stroke="rgba(255, 255, 255, 0)" x="390" xlink:href="#SvgjsPath1701" y="510"/>
  <use id="svg_83" stroke="rgba(112, 114, 135, 0)" x="390" xlink:href="#SvgjsPath1699" y="570"/>
  <use id="svg_84" stroke="rgba(141, 141, 141, 0.39)" x="390" xlink:href="#SvgjsPath1699" y="630"/>
  <use id="svg_85" stroke="rgba(255, 255, 255, 0)" x="390" xlink:href="#SvgjsPath1696" y="690"/>
  <use id="svg_86" stroke="rgba(141, 141, 141, 0.39)" x="450" xlink:href="#SvgjsPath1696" y="30"/>
  <use id="svg_87" stroke="rgba(112, 114, 135, 0)" x="450" xlink:href="#SvgjsPath1696" y="90"/>
  <use id="svg_88" stroke="rgba(112, 114, 135, 0)" x="450" xlink:href="#SvgjsPath1699" y="150"/>
  <use id="svg_89" stroke="rgba(255, 255, 255, 0)" x="450" xlink:href="#SvgjsPath1698" y="210"/>
  <use id="svg_90" stroke="rgba(112, 114, 135, 0)" x="450" xlink:href="#SvgjsPath1698" y="270"/>
  <use id="svg_91" stroke="rgba(255, 255, 255, 0)" x="450" xlink:href="#SvgjsPath1697" y="330"/>
  <use id="svg_92" stroke="rgba(112, 114, 135, 0)" x="450" xlink:href="#SvgjsPath1698" y="390"/>
  <use id="svg_93" stroke="rgba(112, 114, 135, 0)" x="450" xlink:href="#SvgjsPath1701" y="450"/>
  <use id="svg_94" stroke="rgba(112, 114, 135, 0)" x="450" xlink:href="#SvgjsPath1696" y="510"/>
  <use id="svg_95" stroke="rgba(112, 114, 135, 0)" stroke-width="3" x="450" xlink:href="#SvgjsPath1700" y="570"/>
  <use id="svg_96" stroke="rgba(112, 114, 135, 0)" x="450" xlink:href="#SvgjsPath1697" y="630"/>
  <use id="svg_97" stroke="rgba(112, 114, 135, 0)" stroke-width="3" x="450" xlink:href="#SvgjsPath1700" y="690"/>
  <use id="svg_98" stroke="rgba(112, 114, 135, 0)" stroke-width="3" x="510" xlink:href="#SvgjsPath1700" y="30"/>
  <use id="svg_99" stroke="rgba(255, 255, 255, 0)" x="510" xlink:href="#SvgjsPath1696" y="90"/>
  <use id="svg_100" stroke="rgba(112, 114, 135, 0)" x="510" xlink:href="#SvgjsPath1698" y="150"/>
  <use id="svg_101" stroke="rgba(112, 114, 135, 0)" x="510" xlink:href="#SvgjsPath1698" y="210"/>
  <use id="svg_102" stroke="rgba(255, 255, 255, 0)" x="510" xlink:href="#SvgjsPath1701" y="270"/>
  <use id="svg_103" stroke="rgba(112, 114, 135, 0)" stroke-width="3" x="510" xlink:href="#SvgjsPath1700" y="330"/>
  <use id="svg_104" stroke="rgba(255, 255, 255, 0)" x="510" xlink:href="#SvgjsPath1698" y="390"/>
  <use id="svg_105" stroke="rgba(112, 114, 135, 0)" x="510" xlink:href="#SvgjsPath1698" y="450"/>
  <use id="svg_106" stroke="rgba(112, 114, 135, 0)" x="510" xlink:href="#SvgjsPath1696" y="510"/>
  <use id="svg_107" stroke="rgba(112, 114, 135, 0)" x="510" xlink:href="#SvgjsPath1701" y="570"/>
  <use id="svg_108" stroke="rgba(112, 114, 135, 0)" x="510" xlink:href="#SvgjsPath1698" y="630"/>
  <use id="svg_109" stroke="rgba(112, 114, 135, 0)" x="510" xlink:href="#SvgjsPath1696" y="690"/>
  <use id="svg_110" stroke="rgba(112, 114, 135, 0)" x="570" xlink:href="#SvgjsPath1699" y="30"/>
  <use id="svg_111" stroke="rgba(112, 114, 135, 0)" x="570" xlink:href="#SvgjsPath1698" y="90"/>
  <use id="svg_112" stroke="rgba(112, 114, 135, 0)" x="570" xlink:href="#SvgjsPath1698" y="150"/>
  <use id="svg_113" stroke="rgba(112, 114, 135, 0)" x="570" xlink:href="#SvgjsPath1698" y="210"/>
  <use id="svg_114" stroke="rgba(112, 114, 135, 0)" x="570" xlink:href="#SvgjsPath1698" y="270"/>
  <use id="svg_115" stroke="rgba(112, 114, 135, 0)" x="570" xlink:href="#SvgjsPath1696" y="330"/>
  <use id="svg_116" stroke="rgba(255, 255, 255, 0)" x="570" xlink:href="#SvgjsPath1698" y="390"/>
  <use id="svg_117" stroke="rgba(112, 114, 135, 0)" x="570" xlink:href="#SvgjsPath1699" y="450"/>
  <use id="svg_118" stroke="rgba(112, 114, 135, 0)" x="570" xlink:href="#SvgjsPath1701" y="510"/>
  <use id="svg_119" stroke="rgba(112, 114, 135, 0)" x="570" xlink:href="#SvgjsPath1698" y="570"/>
  <use id="svg_120" stroke="rgba(112, 114, 135, 0)" x="570" xlink:href="#SvgjsPath1699" y="630"/>
  <use id="svg_121" stroke="rgba(112, 114, 135, 0)" x="570" xlink:href="#SvgjsPath1697" y="690"/>
  <use id="svg_122" stroke="rgba(112, 114, 135, 0)" x="630" xlink:href="#SvgjsPath1696" y="30"/>
  <use id="svg_123" stroke="rgba(112, 114, 135, 0)" x="630" xlink:href="#SvgjsPath1699" y="90"/>
  <use id="svg_124" stroke="rgba(255, 255, 255, 0)" x="630" xlink:href="#SvgjsPath1698" y="150"/>
  <use id="svg_125" stroke="rgba(112, 114, 135, 0)" x="630" xlink:href="#SvgjsPath1696" y="210"/>
  <use id="svg_126" stroke="rgba(141, 141, 141, 0.39)" x="630" xlink:href="#SvgjsPath1698" y="270"/>
  <use id="svg_127" stroke="rgba(112, 114, 135, 0)" x="630" xlink:href="#SvgjsPath1696" y="330"/>
  <use id="svg_128" stroke="rgba(141, 141, 141, 0.39)" x="630" xlink:href="#SvgjsPath1697" y="390"/>
  <use id="svg_129" stroke="rgba(112, 114, 135, 0)" x="630" xlink:href="#SvgjsPath1696" y="450"/>
  <use id="svg_130" stroke="rgba(112, 114, 135, 0)" x="630" xlink:href="#SvgjsPath1698" y="510"/>
  <use id="svg_131" stroke="rgba(112, 114, 135, 0)" x="630" xlink:href="#SvgjsPath1699" y="570"/>
  <use id="svg_132" stroke="rgba(112, 114, 135, 0)" x="630" xlink:href="#SvgjsPath1698" y="630"/>
  <use id="svg_133" stroke="rgba(255, 255, 255, 0)" x="630" xlink:href="#SvgjsPath1696" y="690"/>
  <use id="svg_134" stroke="rgba(112, 114, 135, 0)" x="690" xlink:href="#SvgjsPath1698" y="30"/>
  <use id="svg_135" stroke="rgba(112, 114, 135, 0)" x="690" xlink:href="#SvgjsPath1696" y="90"/>
  <use id="svg_136" stroke="rgba(112, 114, 135, 0)" x="690" xlink:href="#SvgjsPath1698" y="150"/>
  <use id="svg_137" stroke="rgba(112, 114, 135, 0)" x="690" xlink:href="#SvgjsPath1698" y="210"/>
  <use id="svg_138" stroke="rgba(112, 114, 135, 0)" x="690" xlink:href="#SvgjsPath1699" y="270"/>
  <use id="svg_139" stroke="rgba(255, 255, 255, 0)" x="690" xlink:href="#SvgjsPath1696" y="330"/>
  <use id="svg_140" stroke="rgba(141, 141, 141, 0.39)" x="690" xlink:href="#SvgjsPath1696" y="390"/>
  <use id="svg_141" stroke="rgba(112, 114, 135, 0)" x="690" xlink:href="#SvgjsPath1698" y="450"/>
  <use id="svg_142" stroke="rgba(112, 114, 135, 0)" x="690" xlink:href="#SvgjsPath1696" y="510"/>
  <use id="svg_143" stroke="rgba(112, 114, 135, 0)" x="690" xlink:href="#SvgjsPath1699" y="570"/>
  <use id="svg_144" stroke="rgba(112, 114, 135, 0)" x="690" xlink:href="#SvgjsPath1701" y="630"/>
  <use id="svg_145" stroke="rgba(141, 141, 141, 0.39)" x="690" xlink:href="#SvgjsPath1699" y="690"/>
 </symbol>
 <g class="layer">
  <title>Layer 1</title>
  <g fill="none" id="svg_146" mask="url(&quot;#SvgjsMask1694&quot;)" transform="matrix(1.00468 0 0 1.01338 -3.01871 0.126268)">
   <rect fill="url(&quot;#SvgjsLinearGradient1695&quot;)" height="2000" id="svg_147" transform="translate(2 -83.1174) translate(-49 -3.95797) translate(24 35.6217) translate(2 -21.7688) translate(32 45.5166) translate(-9 -0.989492) translate(-20 -21.7688) translate(17 64.317) translate(3 -7.94483) translate(3 -4) translate(-11 -23) translate(7 19) translate(-30 -42) translate(34 42) translate(3 -8) scale(1 1.00694) translate(-3 8)" width="2000" x="0" y="0"/>
   <use id="svg_148" transform="matrix(1 0 0 1.00694 0 0.0555554)" x="5" xlink:href="#SvgjsSymbol1702" y="-2.13"/>
   <use id="svg_149" transform="matrix(1 0 0 1.00694 0 0.0555554)" x="5" xlink:href="#SvgjsSymbol1702" y="717.87"/>
   <use id="svg_150" transform="matrix(1 0 0 1.00694 0 0.0555554)" x="5" xlink:href="#SvgjsSymbol1702" y="1437.87"/>
   <use id="svg_151" transform="matrix(1 0 0 1.00694 0 0.0555554)" x="725" xlink:href="#SvgjsSymbol1702" y="-2.13"/>
   <use id="svg_152" transform="matrix(1 0 0 1.00694 0 0.0555554)" x="725" xlink:href="#SvgjsSymbol1702" y="717.87"/>
   <use id="svg_153" transform="matrix(1 0 0 1.00694 0 0.0555554)" x="725" xlink:href="#SvgjsSymbol1702" y="1437.87"/>
   <use id="svg_154" transform="matrix(1 0 0 1.00694 0 0.0555554)" x="1445" xlink:href="#SvgjsSymbol1702" y="-2.13"/>
   <use id="svg_155" transform="matrix(1 0 0 1.00694 0 0.0555554)" x="1445" xlink:href="#SvgjsSymbol1702" y="717.87"/>
   <use id="svg_156" transform="matrix(1 0 0 1.00694 0 0.0555554)" x="1445" xlink:href="#SvgjsSymbol1702" y="1437.87"/>
  </g>
  <path d="m220,78c-0.88,1.22 -1.28,2.06 -1.65,2.7c-0.46,0.82 -0.99,1.36 -1.44,2.1c-0.43,0.71 -1.23,1.32 -1.63,2c-0.49,0.83 -0.82,1.65 -1.58,2.15c-0.7,0.45 -1.28,1 -1.73,1.66c-0.5,0.73 -1.36,1.09 -1.92,1.75c-0.59,0.69 -1.01,1.1 -1.77,1.73c-0.65,0.54 -1.21,1.22 -1.72,1.72c-0.75,0.73 -1.11,1.42 -1.79,2.08c-0.58,0.56 -0.61,1.42 -1.13,2.07c-0.49,0.61 -1.76,1.06 -1.56,0.34c0.25,-0.91 0.66,-1.51 1.13,-2.16c0.51,-0.7 1.16,-1.27 1.49,-2.01c0.33,-0.72 0.46,-1.77 1.09,-2.2c0.77,-0.52 1.08,-1.36 1.48,-2.12c0.45,-0.86 0.59,-1.64 1.24,-2.28c0.64,-0.64 1.53,-0.88 2.05,-1.55c0.5,-0.63 0.44,-1.57 1.13,-2.03c0.75,-0.5 1.07,-1.41 1.73,-1.92c0.65,-0.51 1.55,-0.94 2.36,-1.02c0.9,-0.09 1.82,-0.17 2.7,0.02c0.84,0.18 1.44,1.07 1.5,1.78c0.08,0.9 0.01,1.8 0,2.7c-0.01,0.98 -0.43,1.66 -1.08,2.22c-0.61,0.52 -1.4,0.83 -2.12,1.48c-0.58,0.53 -1.5,0.86 -2.3,1.3c-0.8,0.44 -1.8,0.34 -2.45,0.85c-0.61,0.48 -1.38,0.58 -2.25,0.93c-0.74,0.29 -0.89,-0.59 -0.8,-1.48c0.08,-0.81 0.72,-1.48 1.3,-2.1c0.52,-0.56 0.98,-1.36 1.4,-2.04c0.57,-0.92 1.19,-1.38 1.78,-2.15c0.56,-0.74 0.89,-1.65 1.24,-2.3c0.45,-0.85 0.81,-1.69 1.38,-2.3c0.55,-0.59 0.58,-1.82 1.33,-2.28c0.45,-0.28 0.14,0.78 -0.53,1.48c-0.5,0.53 -1.09,1.39 -1.5,2.07c-0.49,0.81 -1.03,1.45 -1.72,2.15c-0.5,0.51 -1.03,1.03 -1.79,1.79c-0.68,0.68 -1.27,1.3 -1.99,1.99c-0.59,0.56 -1.43,0.83 -2.2,1.25c-0.84,0.46 -1.38,1.05 -2.06,1.59c-0.7,0.57 -1.61,0.5 -2.36,1.14c-0.67,0.57 -0.86,1.72 -1.64,1.85c-0.75,0.13 -0.26,-1.22 0.15,-1.82c0.63,-0.91 0.92,-1.63 1.2,-2.61c0.23,-0.82 0.52,-1.52 1,-2.5c0.3,-0.6 0.69,-1.4 1.2,-2.4c0.3,-0.58 0.8,-1.43 1.3,-2.1c0.61,-0.82 1.06,-1.49 1.33,-2.5c0.21,-0.77 0.1,-1.6 0.69,-2.48c0.47,-0.71 1.09,-1.23 1.5,-2.12c0.38,-0.81 0.39,-2.04 1.26,-2.31c0.73,-0.24 0.72,1.23 0.72,2.09c0,0.94 0,1.71 0,2.65c0,1.01 0,1.8 0,2.66c0,0.73 0,1.71 0,2.54c0,1.15 0,1.93 0,2.75c0,1.06 0,1.77 0,2.62c0,1.01 0,1.84 0,2.77c0,0.79 0,1.61 0,2.67c0,0.93 0,1.56 0,2.57c0,0.8 0,1.8 0,2.76c0,0.95 0,1.72 0,2.66c0,1.01 0,1.76 0,2.67l0,0.9l0,0.9l0,0.9" fill="none" id="svg_157" stroke="#000000"/>
  <path d="m200.71,259.94c-0.99,0.88 -1.38,1.08 -1.64,1.22c-0.61,0.33 -0.95,0.55 -1.41,0.92c-0.26,0.21 -0.66,0.57 -0.93,0.8c-0.51,0.43 -0.85,0.69 -1.16,0.91c-0.49,0.35 -0.89,0.61 -1.29,0.88c-0.39,0.27 -0.79,0.51 -1.19,0.62c-0.46,0.13 -0.92,0.28 -1.19,0.6c-0.36,0.44 -0.79,0.65 -1.19,1c-0.3,0.27 -0.37,1.06 0,1.16c0.44,0.11 0.91,0.02 1.33,0c0.43,-0.02 0.87,-0.25 1.19,-0.54c0.38,-0.34 0.74,-0.61 1.24,-0.75c0.39,-0.11 0.9,-0.17 1.28,-0.41c0.44,-0.28 0.74,-0.67 1.05,-1.07c0.32,-0.41 0.67,-0.77 1.03,-0.99c0.45,-0.28 0.72,-1.13 1.11,-0.94c0.25,0.12 -0.45,0.51 -0.85,0.89c-0.29,0.28 -0.48,0.89 -0.72,1.38c-0.26,0.55 -0.53,0.95 -0.81,1.35c-0.39,0.55 -0.68,0.95 -0.99,1.31c-0.38,0.45 -0.71,0.7 -1.07,1.03c-0.46,0.42 -0.64,0.6 -1.03,1.01c-0.41,0.43 -0.61,0.65 -0.99,1.07c-0.47,0.53 -0.7,0.81 -1.08,1.25c-0.32,0.36 -0.75,0.82 -0.91,0.98c-0.34,0.34 -0.69,0.69 -1.23,1.09c-0.32,0.24 -0.8,0.5 -1.1,0.69c-0.45,0.28 -0.89,0.63 -1.17,0.9c-0.54,0.51 -0.77,0.8 -1.1,1.2c-0.31,0.36 -0.7,0.76 -1,1.03c-0.5,0.44 -0.79,0.77 -1.07,1.13c-0.41,0.53 -0.64,0.9 -1.01,1.37c-0.29,0.36 -0.66,0.64 -0.93,1.03c-0.16,0.22 0.18,-0.08 0.62,-0.48c0.32,-0.3 0.62,-0.49 1.01,-0.89c0.31,-0.33 0.61,-0.75 1.1,-1.27c0.26,-0.28 0.53,-0.54 0.94,-0.89c0.49,-0.42 0.84,-0.66 1.17,-0.93c0.5,-0.4 0.77,-0.64 1.03,-0.9c0.53,-0.52 0.76,-0.8 1.1,-1.21c0.34,-0.41 0.7,-0.82 1.11,-1.22c0.28,-0.28 0.58,-0.54 1.02,-0.95c0.44,-0.4 0.74,-0.66 1.04,-0.89c0.58,-0.43 0.88,-0.56 1.28,-0.8c0.44,-0.26 0.8,-0.63 1.16,-0.95c0.33,-0.29 0.8,-0.72 1.12,-0.99c0.41,-0.33 0.4,0.11 0.01,0.36c-0.44,0.28 -0.78,0.72 -1.05,1.03c-0.38,0.44 -0.77,0.63 -1.14,1.13c-0.23,0.3 -0.42,0.85 -0.82,1.32c-0.32,0.37 -0.73,0.67 -1.06,1c-0.34,0.35 -0.71,0.56 -1.16,1.01c-0.3,0.3 -0.43,0.92 -0.65,1.42c-0.2,0.46 -0.81,0.8 -0.82,1.42c0,0.52 0.61,0.49 1.12,0.48c0.36,-0.01 0.91,-0.1 1.17,-0.19c0.41,-0.14 0.81,-0.35 1.3,-0.62c0.37,-0.2 0.8,-0.42 1.37,-0.61c0.22,-0.07 0.71,-0.2 0.97,-0.27c0.52,-0.14 0.79,-0.19 1.54,-0.41c0.46,-0.13 0.68,-0.2 1.12,-0.34c0.43,-0.13 1.09,-0.34 1.32,-0.41c0.47,-0.14 0.94,-0.27 1.17,-0.34c0.69,-0.2 1.12,-0.34 1.55,-0.47c0.21,-0.07 0.63,-0.21 1.28,-0.41c0.45,-0.14 0.69,-0.2 1.16,-0.34c0.49,-0.14 0.73,-0.2 1.47,-0.41c0.25,-0.07 0.74,-0.2 0.99,-0.27c0.49,-0.14 1.24,-0.34 1.48,-0.41c0.49,-0.13 0.74,-0.2 1.22,-0.31c0.47,-0.11 0.92,-0.19 1.36,-0.24c0.42,-0.05 0.83,-0.06 1.23,-0.11c0.6,-0.08 0.99,-0.18 1.39,-0.28c0.4,-0.1 0.99,-0.24 1.39,-0.28c0.4,-0.04 0.81,-0.05 1.23,-0.06c0.44,0 0.89,0 1.35,0c0.46,0 0.68,0 1.31,0c0.55,0 0.87,0 1.27,0c0.53,0 0.47,-0.08 0.01,0.04c-0.46,0.12 -0.72,0.38 -1.21,0.7c-0.41,0.27 -0.73,0.48 -1.23,0.74c-0.4,0.21 -0.68,0.33 -1.18,0.61c-0.45,0.25 -0.75,0.45 -1.25,0.57c-0.42,0.1 -0.9,0.18 -1.3,0.32c-0.41,0.15 -0.92,0.31 -1.26,0.37c-0.41,0.08 -0.9,0.28 -1.3,0.45c-0.49,0.21 -0.87,0.23 -1.34,0.24c-0.38,0 -0.85,0 -1.34,0c-0.37,0 -1.01,0.1 -1.05,-0.41c-0.05,-0.59 0.54,-0.98 0.77,-1.37c0.32,-0.54 0.46,-1.07 0.74,-1.58c0.24,-0.44 0.69,-0.82 1.03,-1.1c0.4,-0.33 0.73,-0.71 1.07,-1.06c0.33,-0.34 0.7,-0.68 0.94,-0.91c0.48,-0.48 0.77,-0.87 1.13,-1.36c0.32,-0.44 0.55,-0.78 0.84,-1.12c0.47,-0.57 0.82,-0.73 1.1,-1.1c0.35,-0.46 0.49,-1.09 0.87,-1.43c0.36,-0.31 0.16,-0.73 -0.35,-0.62c-0.28,0.06 -0.75,0.23 -1.09,0.32c-0.62,0.17 -1.01,0.21 -1.36,0.27c-0.48,0.09 -0.89,0.25 -1.31,0.44c-0.44,0.19 -0.89,0.41 -1.19,0.54c-0.48,0.21 -0.99,0.41 -1.35,0.54c-0.37,0.13 -0.74,0.26 -1.28,0.36c-0.5,0.1 -0.83,0.11 -1.18,0.15c-0.56,0.07 -0.97,0.15 -1.41,0.26c-0.46,0.11 -0.69,0.18 -1.37,0.38c-0.44,0.13 -0.86,0.27 -1.26,0.41c-0.2,0.07 -0.8,0.27 -1.19,0.4c-0.39,0.13 -0.77,0.26 -1.15,0.35c-0.69,0.16 -1.01,0.16 -1.47,0.23c-0.6,0.09 -0.89,0.2 -1.34,0.38c-0.3,0.12 -0.89,0.4 -1.18,0.53c-0.42,0.18 -0.94,0.32 -1.37,0.41c-0.43,0.1 -1.38,0.04 -1.24,0.66c0.05,0.23 0.64,-0.28 0.92,-0.46c0.49,-0.33 0.86,-0.61 1.27,-0.79c0.4,-0.18 0.88,-0.47 1.13,-0.66c0.39,-0.3 0.9,-0.63 1.25,-0.74c0.36,-0.12 0.92,-0.33 1.25,-0.51c0.35,-0.19 0.7,-0.44 1.25,-0.65c0.49,-0.19 0.82,-0.2 1.27,-0.28c0.45,-0.08 0.9,-0.24 1.21,-0.36c0.66,-0.26 1.01,-0.4 1.38,-0.53c0.38,-0.14 0.77,-0.27 1.37,-0.47c0.4,-0.13 0.79,-0.27 1.19,-0.37c0.59,-0.15 0.99,-0.19 1.38,-0.22c0.4,-0.03 0.79,-0.02 1.38,-0.02c0.39,0 0.77,0 1.13,0c0.49,0 1.01,0 1.34,0c0.5,0 0.89,-0.17 1.41,0c0.38,0.12 0.26,0.85 -0.06,1.21c-0.35,0.39 -0.74,0.58 -1.1,0.95c-0.36,0.35 -0.7,0.77 -1.07,1.1c-0.27,0.24 -0.85,0.69 -1.15,0.87c-0.43,0.26 -0.72,0.38 -1.23,0.67c-0.35,0.2 -0.68,0.44 -1.16,0.83c-0.41,0.33 -0.68,0.59 -0.98,0.81c-0.58,0.43 -0.88,0.59 -1.31,0.76c-0.51,0.2 -0.96,0.19 -1.46,0.36c-0.3,0.1 -0.69,0.36 -1.19,0.7c-0.3,0.2 -0.79,0.55 -1.09,0.74c-0.39,0.25 -0.89,0.4 -1.29,0.49c-0.5,0.11 -0.88,0.35 -1.19,0.47c-0.48,0.19 -0.95,0.2 -1.42,0.19c-0.45,0 -0.8,-0.4 -0.58,-0.88c0.25,-0.54 0.61,-0.88 0.91,-1.28c0.3,-0.41 0.64,-0.89 0.94,-1.28c0.28,-0.37 0.71,-0.83 0.94,-1.05c0.38,-0.38 0.66,-0.62 1.14,-1.18c0.33,-0.38 0.59,-0.75 0.95,-1.25c0.28,-0.38 0.62,-0.88 1.03,-1.26c0.25,-0.22 0.63,-0.47 1.13,-0.81c0.3,-0.2 0.79,-0.56 1.18,-0.8c0.42,-0.26 0.76,-0.52 1.19,-0.63c0.26,-0.07 -0.06,0.48 -0.39,0.79c-0.4,0.37 -0.68,0.73 -0.98,1.07c-0.39,0.44 -0.79,0.77 -1.09,0.98c-0.5,0.35 -0.83,0.57 -1.35,0.92c-0.31,0.21 -0.65,0.45 -1,0.68c-0.34,0.23 -0.93,0.64 -1.19,0.81c-0.37,0.26 -0.94,0.64 -1.27,0.87c-0.37,0.25 -0.56,0.38 -0.97,0.64c-0.66,0.41 -0.89,0.54 -1.35,0.8c-0.46,0.26 -0.68,0.38 -1.31,0.71c-0.38,0.19 -0.72,0.36 -1.2,0.58c-0.45,0.21 -0.9,0.41 -1.2,0.54c-0.31,0.14 -0.99,0.41 -1.35,0.54c-0.37,0.13 -0.74,0.26 -1.28,0.36c-0.5,0.1 -0.81,0.1 -1.27,0.11c-0.45,0.01 -0.89,-0.02 -1.31,0.04c-0.52,0.07 -0.84,0.28 -1.26,0.45c-0.49,0.19 -0.89,0.19 -1.38,0.19c-0.38,0 -1.1,0.24 -1.26,-0.24c-0.18,-0.54 0.37,-0.98 0.71,-1.45c0.3,-0.41 0.61,-0.83 0.98,-1.15c0.35,-0.31 0.75,-0.65 1.05,-0.98c0.3,-0.35 0.69,-0.81 1.09,-1.16c0.29,-0.26 0.69,-0.65 1,-0.98c0.34,-0.36 0.74,-0.7 1.23,-0.96c0.35,-0.19 0.72,-0.32 1.25,-0.62c0.34,-0.2 0.65,-0.44 1.09,-0.8c0.4,-0.32 0.74,-0.62 1.08,-0.84c0.46,-0.3 0.86,-0.48 1.28,-0.68c0.29,-0.14 0.89,-0.4 1.32,-0.61c0.28,-0.13 0.79,-0.4 1.13,-0.61c0.42,-0.26 0.9,-0.63 1.2,-0.79c0.48,-0.25 0.88,-0.29 1.37,-0.29c0.41,-0.01 1.01,0.05 0.96,0.54c-0.07,0.64 -0.55,0.94 -0.85,1.35c-0.35,0.48 -0.59,0.92 -0.84,1.49c-0.25,0.56 -0.45,0.94 -0.82,1.46c-0.24,0.33 -0.5,0.67 -0.9,1.22c-0.31,0.43 -0.55,0.91 -0.76,1.38c-0.18,0.39 -0.55,1.08 -0.84,1.45c-0.37,0.48 -0.7,0.7 -1.05,1.07c-0.33,0.35 -0.54,0.86 -0.82,1.41c-0.23,0.45 -0.59,0.92 -0.84,1.26c-0.34,0.47 -0.56,1.14 -0.64,1.11c-0.48,-0.18 0,-1.14 0,-1.83c0,-0.64 0.08,-1.22 0.21,-1.67c0.14,-0.52 0.25,-1.2 0.31,-1.77c0.07,-0.65 0.19,-1.2 0.28,-1.59c0.19,-0.81 0.34,-1.41 0.44,-1.82c0.15,-0.61 0.29,-1.22 0.45,-1.82c0.1,-0.39 0.29,-1.12 0.45,-1.59c0.16,-0.46 0.42,-1.1 0.67,-1.63c0.17,-0.37 0.44,-0.91 0.72,-1.6c0.19,-0.46 0.34,-0.92 0.54,-1.6c0.16,-0.55 0.24,-0.95 0.55,-1.62c0.23,-0.49 0.53,-0.91 0.75,-1.41c0.22,-0.51 0.35,-1.08 0.58,-1.69c0.18,-0.47 0.51,-1 0.69,-1.46c0.18,-0.46 0.23,-1.27 0.52,-1.73c0.26,-0.42 0.75,-0.22 0.77,0.38c0.02,0.56 0,1.22 0,1.75c0,0.61 0,1.12 0,1.79c0,0.59 0,1.31 0,1.73c0,0.7 0,1.17 0,2.02c0,0.53 0,1.01 0,1.67c0,0.55 0,1.14 0,1.95c0,0.4 0,0.99 0,1.71c0,0.48 0,1.09 0,1.75c0,0.54 0,1.1 0,1.8c0,0.61 0,1.3 0,1.84c0,0.54 0,1.22 0,1.76c0,0.68 -0.04,1.2 0,1.84c0.04,0.61 0.4,1.04 0.48,1.61c0.09,0.6 -0.11,1.66 0.26,1.66c0.37,0 0.18,-0.99 0.25,-1.59c0.07,-0.57 0.37,-0.94 0.59,-1.6c0.16,-0.48 0.21,-1.01 0.39,-1.74c0.14,-0.58 0.45,-0.99 0.65,-1.4c0.31,-0.64 0.33,-1.24 0.51,-1.75c0.21,-0.57 0.52,-0.89 0.88,-1.43c0.24,-0.36 0.49,-0.96 0.64,-1.44c0.15,-0.5 0.34,-1.09 0.59,-1.6c0.29,-0.59 0.47,-1.07 0.74,-1.6c0.23,-0.45 0.52,-0.89 0.68,-1.37c0.23,-0.64 0.31,-1.21 0.5,-1.69c0.24,-0.59 0.61,-1.08 0.74,-0.6c0.15,0.58 -0.08,1.17 -0.26,1.63c-0.27,0.69 -0.56,1.06 -0.81,1.5c-0.34,0.61 -0.47,0.97 -0.65,1.52c-0.16,0.5 -0.41,1.15 -0.65,1.62c-0.26,0.51 -0.45,1.03 -0.64,1.57c-0.2,0.54 -0.44,1.22 -0.6,1.63c-0.16,0.43 -0.43,1.06 -0.66,1.59c-0.16,0.37 -0.43,0.9 -0.58,1.6c-0.13,0.58 -0.18,1.28 -0.3,1.67c-0.16,0.5 -0.5,1.05 -0.77,1.61c-0.21,0.44 -0.39,0.96 -0.47,1.64c-0.05,0.5 0.07,1.26 -0.17,1.76c-0.26,0.54 -0.81,0.44 -0.85,-0.06c-0.05,-0.64 0,-1.16 0,-1.83c0,-0.54 0,-1.22 0,-1.78c0,-0.63 0,-1.16 0,-1.72c0,-0.72 0,-1.35 0,-1.81c0,-0.65 0,-1.21 0,-1.79c0,-0.81 0,-1.22 0,-1.85c0,-0.44 -0.01,-1.14 0.01,-1.88c0.01,-0.49 0,-0.97 0.14,-1.77c0.09,-0.53 0.24,-1.03 0.31,-1.85c0.04,-0.47 0.04,-0.96 0.04,-1.45c0,-0.94 0,-1.38 0,-2.01c0,-0.61 -0.01,-1.22 0.02,-1.83c0.02,-0.41 0.12,-1.22 0.23,-1.81c0.07,-0.38 0.21,-1.08 0.24,-1.68c0.03,-0.69 0,-1.24 0.01,-1.85c0.01,-0.64 0.41,-0.78 0.48,-0.17c0.07,0.64 0.04,1.19 -0.03,1.73c-0.09,0.69 -0.26,1.08 -0.5,1.76c-0.14,0.41 -0.33,1 -0.4,1.68c-0.06,0.55 -0.05,1.11 -0.18,1.78c-0.09,0.48 -0.26,0.98 -0.45,1.79c-0.11,0.47 -0.2,0.96 -0.34,1.45c-0.2,0.73 -0.38,1.17 -0.55,1.61c-0.17,0.44 -0.49,1.36 -0.61,1.86c-0.12,0.5 -0.22,1.01 -0.37,1.74c-0.1,0.46 -0.19,0.91 -0.37,1.57c-0.19,0.69 -0.36,1.17 -0.53,1.67c-0.17,0.51 -0.35,1 -0.57,1.73c-0.14,0.45 -0.26,0.91 -0.45,1.62c-0.14,0.52 -0.3,1.08 -0.47,1.68c-0.17,0.61 -0.26,0.91 -0.5,1.77c-0.14,0.51 -0.26,0.99 -0.43,1.64c-0.15,0.61 -0.3,1.22 -0.4,1.61c-0.15,0.57 -0.34,1.24 -0.49,1.69c-0.24,0.7 -0.46,1.21 -0.6,1.71c-0.16,0.57 -0.22,1.25 -0.4,1.67c-0.24,0.56 -0.7,0.39 -0.73,-0.14c-0.04,-0.66 -0.01,-1.22 -0.01,-1.67c0,-0.68 0,-1.24 0,-1.84c0,-0.61 0,-1.22 0,-1.82c0,-0.61 0,-1.22 0,-1.83c0,-0.41 -0.01,-1.22 0.01,-1.84c0.01,-0.43 0.09,-1.35 0.17,-1.85c0.07,-0.51 0.17,-1.01 0.32,-1.74c0.1,-0.46 0.21,-0.92 0.35,-1.65c0.16,-0.83 0.2,-1.15 0.3,-1.82c0.05,-0.35 0.15,-1.08 0.2,-1.44c0.15,-1.06 0.19,-1.39 0.3,-2.02c0.1,-0.58 0.19,-1.12 0.35,-1.86c0.1,-0.46 0.25,-1.12 0.37,-1.53c0.19,-0.62 0.44,-1.22 0.61,-1.63c0.17,-0.41 0.49,-1.21 0.61,-1.62c0.18,-0.58 0.37,-1.31 0.52,-1.79c0.14,-0.44 0.4,-1.11 0.54,-1.52c0.23,-0.7 0.26,-1.18 0.44,-1.82c0.13,-0.46 0.51,-0.93 0.84,-1.31c0.28,-0.34 0.73,-0.2 0.92,0.4c0.13,0.43 0.1,1.03 0.22,1.7c0.1,0.56 0.25,1.11 0.45,1.78c0.14,0.47 0.31,0.92 0.49,1.6c0.15,0.56 0.25,0.95 0.34,1.77c0.07,0.61 0.06,1.04 0.1,1.48c0.08,0.95 0.17,1.45 0.26,1.95c0.09,0.5 0.24,1.22 0.34,1.67c0.15,0.68 0.25,1.16 0.4,1.95c0.1,0.59 0.15,0.9 0.25,1.56c0.05,0.34 0.2,1.43 0.25,1.8c0.1,0.76 0.15,1.15 0.2,1.54c0.1,0.78 0.15,1.16 0.3,2.28c0.05,0.36 0.14,1.06 0.19,1.39c0.08,0.64 0.18,1.51 0.22,2.02c0.03,0.48 0.04,0.96 0.12,1.96c0.02,0.28 0.09,0.86 0.18,1.46c0.09,0.61 0.23,1.47 0.34,1.98c0.1,0.48 0.2,0.93 0.3,1.39c0.15,0.7 0.3,1.45 0.4,1.95c0.1,0.5 0.24,1.22 0.35,1.67c0.14,0.64 0.25,1.05 0.45,1.86c0.1,0.4 0.24,0.98 0.45,1.68c0.14,0.47 0.31,0.92 0.49,1.58c0.15,0.53 0.46,1.04 0.4,1.76c-0.03,0.41 -0.38,0.01 -0.55,-0.54c-0.16,-0.51 -0.28,-1.1 -0.35,-1.91c-0.04,-0.4 -0.04,-1.02 -0.15,-1.83c-0.06,-0.41 -0.15,-0.84 -0.29,-1.53c-0.15,-0.79 -0.2,-1.08 -0.29,-1.68c-0.09,-0.62 -0.17,-1.25 -0.22,-1.87c-0.05,-0.59 -0.07,-1.16 -0.08,-1.7c-0.01,-0.51 0,-1.46 -0.01,-1.91c-0.01,-0.44 -0.07,-1.35 -0.14,-1.83c-0.07,-0.51 -0.15,-1.03 -0.21,-1.57c-0.09,-0.81 -0.11,-1.35 -0.14,-1.91c-0.03,-0.57 -0.08,-1.45 -0.11,-1.76c-0.06,-0.63 -0.14,-1.26 -0.24,-1.87c-0.05,-0.3 -0.19,-1.13 -0.29,-1.63c-0.15,-0.72 -0.26,-1.2 -0.4,-1.99c-0.1,-0.58 -0.15,-0.88 -0.23,-1.49c-0.08,-0.6 -0.16,-1.42 -0.19,-1.92c-0.03,-0.47 -0.05,-1.15 -0.14,-1.85c-0.06,-0.5 -0.14,-1 -0.24,-1.5c-0.19,-0.97 -0.29,-1.42 -0.39,-1.85c-0.15,-0.62 -0.29,-1.23 -0.45,-1.82c-0.14,-0.55 -0.35,-1.13 -0.54,-1.57c-0.25,-0.56 -0.45,-1.18 -0.57,-1.69c-0.13,-0.58 0.23,-1.78 -0.18,-1.78c-0.47,0 0.06,1.13 -0.11,1.76c-0.15,0.56 -0.36,1.02 -0.38,1.53c-0.03,0.79 -0.01,1.34 -0.01,1.89c0,0.7 0,1.17 0,1.78c0,0.68 0,1.23 0,1.78c0,0.68 0,1.29 0,1.93c0,0.53 0,1.09 0,1.8c0,0.48 0,1.06 0,1.74c0,0.56 0,1.19 0,1.72c0,0.56 0,1.27 0,1.9c0,0.56 0,1.24 0,1.67c0,0.8 0,1.34 0,1.86c0,0.7 0.01,1.36 0,1.9c-0.01,0.57 -0.43,0.73 -0.69,0.22c-0.17,-0.34 -0.42,-1.02 -0.58,-1.57c-0.19,-0.66 -0.21,-1.22 -0.22,-1.89c0,-0.41 -0.01,-0.99 -0.11,-1.64c-0.08,-0.55 -0.23,-1.09 -0.33,-1.8c-0.08,-0.62 -0.09,-1.09 -0.2,-1.76c-0.09,-0.56 -0.23,-1.1 -0.31,-1.78c-0.05,-0.46 -0.12,-1.25 -0.22,-1.78c-0.1,-0.56 -0.2,-0.92 -0.29,-1.76c-0.05,-0.48 -0.1,-1.21 -0.17,-1.63c-0.1,-0.7 -0.2,-1.16 -0.27,-1.82c-0.08,-0.71 -0.08,-1.25 -0.08,-1.9c0,-0.55 -0.22,-1.53 0.17,-1.66c0.39,-0.13 0.4,0.87 0.62,1.43c0.22,0.56 0.5,0.97 0.74,1.45c0.22,0.46 0.52,1.14 0.77,1.54c0.25,0.39 0.6,0.81 0.9,1.29c0.27,0.43 0.46,0.91 0.7,1.48c0.21,0.5 0.47,1.05 0.67,1.44c0.21,0.4 0.58,1.01 0.84,1.41c0.27,0.4 0.54,0.78 0.93,1.31c0.35,0.48 0.58,0.78 0.87,1.25c0.31,0.49 0.6,1.05 0.81,1.44c0.22,0.4 0.58,1.01 0.85,1.41c0.27,0.41 0.57,0.81 1.01,1.42c0.3,0.41 0.59,0.81 0.89,1.22c0.15,0.2 0.59,0.81 0.89,1.22l0.3,0.41l0.3,0.41l0.3,0.41" fill="none" id="svg_158" stroke="#000000" transform="matrix(1 0 0 1 0 0)"/>
  <rect fill="#000000" height="66" id="svg_159" stroke="#000000" transform="matrix(1 0 0 1 0 0)" width="66" x="184" y="240"/>
  <rect fill="#000000" height="44" id="svg_160" stroke="#000000" width="44" x="915" y="241"/>
  <rect fill="#000000" height="51" id="svg_161" stroke="#000000" width="51" x="850" y="112"/>
  <rect fill="#000000" height="40" id="svg_162" stroke="#000000" width="40" x="672" y="356"/>
  <rect fill="#000000" height="56" id="svg_163" stroke="#000000" width="56" x="793" y="338"/>
  <rect fill="#000000" height="42" id="svg_164" stroke="#000000" width="42" x="801" y="424"/>
  <rect fill="#000000" height="89" id="svg_165" stroke="#000000" width="89" x="606" y="222"/>
  <rect fill="#000000" height="34" id="svg_166" stroke="#000000" width="34" x="851" y="289"/>
  <rect fill="#000000" height="73" id="svg_167" stroke="#000000" width="73" x="734" y="167"/>
  <rect fill="#000000" height="47" id="svg_168" stroke="#000000" width="47" x="1345" y="243"/>
  <rect fill="#000000" height="61" id="svg_169" stroke="#000000" width="61" x="1457" y="163"/>
  <rect fill="#000000" height="48" id="svg_170" stroke="#000000" width="48" x="1573" y="286"/>
  <rect fill="#000000" height="41" id="svg_171" stroke="#000000" width="41" x="1517" y="357"/>
  <rect fill="#000000" height="43" id="svg_172" stroke="#000000" width="43" x="1524" y="424"/>
  <rect fill="#000000" height="38" id="svg_173" stroke="#000000" width="38" x="197" y="787"/>
  <rect fill="#000000" height="27" id="svg_174" stroke="#000000" width="27" x="76" y="369"/>
  <rect fill="#000000" height="40" id="svg_175" stroke="#000000" width="40" x="72" y="428"/>
  <rect fill="#000000" height="46" id="svg_176" stroke="#000000" width="46" x="736" y="903"/>
  <rect fill="#000000" height="51" id="svg_177" stroke="#000000" width="51" x="595" y="956"/>
  <rect fill="#000000" height="61" id="svg_178" stroke="#000000" width="61" x="894" y="762"/>
  <rect fill="#000000" height="52" id="svg_179" stroke="#000000" width="52" x="75" y="1809"/>
  <rect fill="#000000" height="65" id="svg_180" stroke="#000000" width="65" x="-4" y="1638"/>
  <rect fill="#000000" height="52" id="svg_181" stroke="#000000" width="52" x="116" y="1761"/>
  <rect fill="#000000" height="46" id="svg_182" stroke="#000000" width="46" x="71" y="1868"/>
  <rect fill="#000000" height="46" id="svg_183" stroke="#000000" width="46" x="781" y="1816"/>
  <rect fill="#000000" height="40" id="svg_184" stroke="#000000" width="40" x="790" y="1883"/>
  <rect fill="#000000" height="51" id="svg_185" stroke="#000000" transform="matrix(1 0 0 1 0 0)" width="51" x="189" y="1509"/>
  <rect fill="#000000" height="50" id="svg_186" stroke="#000000" width="50" x="710.22" y="942.22"/>
  <rect fill="#000000" height="64" id="svg_187" stroke="#000000" width="64" x="588.22" y="1007.22"/>
  <rect fill="#000000" height="193" id="svg_188" stroke="#000000" width="193" x="765.22" y="1050.22"/>
  <rect fill="#000000" height="42" id="svg_189" stroke="#000000" width="42" x="1079.22" y="1372.22"/>
  <rect fill="#000000" height="55" id="svg_190" stroke="#000000" width="55" x="117.22" y="1065.22"/>
  <rect fill="#000000" height="93" id="svg_191" stroke="#000000" width="93" x="63.22" y="1145.22"/>
  <rect fill="#000000" height="48" id="svg_192" stroke="#000000" width="48" x="1504.22" y="1125.22"/>
  <rect fill="#000000" height="66" id="svg_193" stroke="#000000" width="66" x="1430.22" y="943.22"/>
  <rect fill="#000000" height="12" id="svg_194" stroke="#000000" width="12" x="194.78" y="1548.56"/>
  <rect fill="#000000" height="6" id="svg_195" opacity="0.5" stroke="#000000" width="6" x="185.78" y="1549.56"/>
  <rect fill="#000000" height="172" id="svg_196" stroke="#000000" width="172" x="573.78" y="1642.56"/>
  <rect fill="#000000" height="40" id="svg_197" stroke="#000000" width="40" x="179.78" y="1557.56"/>
  <rect fill="#000000" height="60" id="svg_198" stroke="#000000" width="60" x="843.78" y="1788.56"/>
  <rect fill="#000000" height="145" id="svg_199" stroke="#000000" width="145" x="1323.78" y="1657.56"/>
  <rect fill="#000000" height="56" id="svg_200" stroke="#000000" width="56" x="1509.78" y="1186.56"/>
  <rect fill="#000000" height="68" id="svg_201" stroke="#000000" transform="matrix(1 0 0 1 0 0)" width="68" x="1534.44" y="1787.44"/>
  <rect fill="#000000" height="47" id="svg_202" stroke="#000000" width="47" x="1527.44" y="1865.44"/>
  <rect fill="#000000" height="44" id="svg_203" stroke="#000000" width="44" x="1591.44" y="1822.44"/>
  <rect fill="#000000" height="63" id="svg_204" stroke="#000000" width="63" x="1470.44" y="1692.44"/>
  <rect fill="#000000" height="38" id="svg_205" stroke="#000000" width="38" x="1652.44" y="1582.44"/>
  <rect fill="#000000" height="47" id="svg_206" stroke="#000000" width="47" x="1544.44" y="1950.44"/>
  <rect fill="#000000" height="101" id="svg_207" stroke="#000000" width="101" x="820.44" y="1885.44"/>
  <rect fill="#000000" height="58" id="svg_208" stroke="#000000" width="70" x="762.44" y="1697.44"/>
  <rect fill="#000000" height="48" id="svg_209" stroke="#000000" width="48" x="1526.44" y="1139.44"/>
  <rect fill="#000000" height="51" id="svg_210" stroke="#000000" width="51" x="1355.44" y="1038.44"/>
  <rect fill="#000000" height="40" id="svg_211" stroke="#000000" width="40" x="813.44" y="480.33"/>
  <rect fill="#000000" height="69" id="svg_212" stroke="#000000" width="69" x="634.44" y="296.33"/>
  <rect fill="#000000" height="54" id="svg_213" stroke="#000000" width="54" x="739.44" y="241.33"/>
  <rect fill="#000000" height="59" id="svg_214" stroke="#000000" width="59" x="867.44" y="336.33"/>
  <rect fill="#000000" height="49" id="svg_215" stroke="#000000" width="49" x="1335.44" y="299.33"/>
  <rect fill="#000000" height="61" id="svg_216" stroke="#000000" transform="matrix(1 0 0 1 0 0)" width="61" x="1554.44" y="478.33"/>
  <rect fill="#000000" height="51" id="svg_217" stroke="#000000" width="51" x="726" y="1654.33"/>
  <rect fill="#000000" height="35" id="svg_218" stroke="#000000" width="35" x="795" y="1843.33"/>
  <rect fill="#000000" height="54" id="svg_219" stroke="#000000" width="54" x="1458" y="1654.33"/>
  <rect fill="#000000" height="49" id="svg_220" stroke="#000000" width="49" x="908" y="1530.33"/>
  <rect fill="#000000" height="51" id="svg_221" stroke="#000000" width="51" x="1518" y="1899.33"/>
  <rect fill="#000000" height="57" id="svg_222" stroke="#000000" transform="matrix(1 0 0 1 0 0)" width="57" x="801" y="1898.33"/>
  <rect fill="#000000" height="40" id="svg_223" stroke="#000000" width="40" x="1646.44" y="1539.11"/>
 </g>
</svg>